<svg xmlns="http://www.w3.org/2000/svg" width="1280" height="1280" viewBox="0 0 1280 1280"><path fill="none" stroke="#000" stroke-width="30" stroke-miterlimit="10" d="M747.496 466.392L43 130.796V549.806l241 239.215V828M191.837 331L447.475 522.46M536.98 696.633l101.917 54.554 3.103 1.9V822.404l-105 56.713V1196l-.02 9h-53.874L284 1103.51V828M858.313 551.22l152.496 144.923M43.796 84.395L474.803 216l1.835-1.443 165.96-130.162M43.796 84.395l597.13 275.598 1.673.77 1.643-.76M1093.36 331L837.72 522.46M1241.4 83.828L642.6 360.763"/><path fill="none" stroke="#000" stroke-width="30" stroke-miterlimit="10" d="M640.76 85.834l1.84-1.44 165.957 130.163 1.838 1.442L1241.4 84.394M746.02 696.633l-101.917 54.554-3.103 1.9V822.404l105 56.713V1196l.02 9h53.874L999 1103.51V828M535.504 466.392L1240 130.796V549.806L999 789.022V828"/></svg>