<?xml version="1.0" encoding="utf-8"?>
<!-- Generator: Adobe Illustrator 16.0.0, SVG Export Plug-In . SVG Version: 6.00 Build 0)  -->
<!DOCTYPE svg PUBLIC "-//W3C//DTD SVG 1.1//EN" "http://www.w3.org/Graphics/SVG/1.1/DTD/svg11.dtd">
<svg version="1.1" id="Layer_1" xmlns="http://www.w3.org/2000/svg" xmlns:xlink="http://www.w3.org/1999/xlink" x="0px" y="0px"
	 width="1280px" height="1280px" viewBox="0 0 1280 1280" enable-background="new 0 0 1280 1280" xml:space="preserve">
<polyline fill="none" stroke="#000000" stroke-width="30" stroke-miterlimit="10" points="747.496,466.392 43,130.796 43,176.517 
	43,508.819 43,549.807 284,789.022 284,828 "/>
<line fill="none" stroke="#000000" stroke-width="30" stroke-miterlimit="10" x1="191.837" y1="330.999" x2="447.475" y2="522.462"/>
<polyline fill="none" stroke="#000000" stroke-width="30" stroke-miterlimit="10" points="536.979,696.633 638.897,751.187 
	642,753.087 642,819.252 642,822.404 537,879.117 537,882.27 537,1182.241 537,1189.963 537,1196 536.979,1205 528,1205 
	524.911,1205 483.106,1205 284,1103.509 284,1061.561 284,828 "/>
<line fill="none" stroke="#000000" stroke-width="30" stroke-miterlimit="10" x1="858.313" y1="551.219" x2="1010.809" y2="696.143"/>
<polyline fill="none" stroke="#000000" stroke-width="30" stroke-miterlimit="10" points="43.796,84.395 474.803,215.999 
	476.638,214.557 642.599,84.395 "/>
<polyline fill="none" stroke="#000000" stroke-width="30" stroke-miterlimit="10" points="43.796,84.395 640.927,359.993 
	642.599,360.763 644.243,360.002 "/>
<line fill="none" stroke="#000000" stroke-width="30" stroke-miterlimit="10" x1="1093.359" y1="330.999" x2="837.721" y2="522.462"/>
<polyline fill="none" stroke="#000000" stroke-width="30" stroke-miterlimit="10" points="1241.399,83.828 642.599,360.763 
	642.599,360.763 "/>
<polyline fill="none" stroke="#000000" stroke-width="30" stroke-miterlimit="10" points="640.76,85.834 642.599,84.395 
	808.557,214.557 810.395,215.999 1241.399,84.395 "/>
<path fill="none" stroke="#000000" stroke-width="30" stroke-miterlimit="10" d="M536.759,1195.557"/>
<path fill="none" stroke="#000000" stroke-width="30" stroke-miterlimit="10" d="M747.004,1197.018"/>
<polyline fill="none" stroke="#000000" stroke-width="30" stroke-miterlimit="10" points="746.021,696.633 644.103,751.187 
	641,753.087 641,819.252 641,822.404 746,879.117 746,882.27 746,1182.241 746,1189.963 746,1196 746.021,1205 755,1205 
	758.09,1205 799.894,1205 999,1103.509 999,1061.561 999,828 "/>
<polyline fill="none" stroke="#000000" stroke-width="30" stroke-miterlimit="10" points="535.504,466.392 1240,130.796 
	1240,176.517 1240,508.819 1240,549.807 999,789.022 999,828 "/>
</svg>
